# tissue_box_hl2c.obj (textured, rectified via homography by a separate pass)
# Geometry rescaled to MEASURED real-world dims: width(x)=23.5cm height(y)=12cm depth(z)=11.5cm
# Texture atlas + UVs + face rectification kept as received (see atlas_layout.json for provenance).
# vn added (flat per-face) — pysrt3d's NormalRenderer requires vertex normals to build the model.
mtllib tissue_box_hl2c.mtl
o tissue_box
v -0.117500 0.060000 0.057500
v 0.117500 0.060000 0.057500
v 0.117500 -0.060000 0.057500
v -0.117500 -0.060000 0.057500
v 0.117500 0.060000 0.057500
v 0.117500 0.060000 -0.057500
v 0.117500 -0.060000 -0.057500
v 0.117500 -0.060000 0.057500
v 0.117500 0.060000 -0.057500
v -0.117500 0.060000 -0.057500
v -0.117500 -0.060000 -0.057500
v 0.117500 -0.060000 -0.057500
v -0.117500 0.060000 -0.057500
v -0.117500 0.060000 0.057500
v -0.117500 -0.060000 0.057500
v -0.117500 -0.060000 -0.057500
v -0.117500 0.060000 -0.057500
v 0.117500 0.060000 -0.057500
v 0.117500 0.060000 0.057500
v -0.117500 0.060000 0.057500
v -0.117500 -0.060000 0.057500
v 0.117500 -0.060000 0.057500
v 0.117500 -0.060000 -0.057500
v -0.117500 -0.060000 -0.057500
vt 0.166860 0.667436
vt 0.500000 0.667436
vt 0.500000 0.332564
vt 0.166860 0.332564
vt 0.500000 0.667436
vt 0.662225 0.667436
vt 0.662225 0.332564
vt 0.500000 0.332564
vt 0.662225 0.667436
vt 0.995365 0.667436
vt 0.995365 0.332564
vt 0.662225 0.332564
vt 0.004635 0.667436
vt 0.166860 0.667436
vt 0.166860 0.332564
vt 0.004635 0.332564
vt 0.166860 0.990762
vt 0.500000 0.990762
vt 0.500000 0.667436
vt 0.166860 0.667436
vt 0.166860 0.332564
vt 0.500000 0.332564
vt 0.500000 0.009238
vt 0.166860 0.009238
vn 0.000000 0.000000 1.000000
vn 1.000000 0.000000 0.000000
vn 0.000000 -0.000000 -1.000000
vn -1.000000 0.000000 0.000000
vn 0.000000 1.000000 0.000000
vn 0.000000 -1.000000 0.000000
usemtl box
f 1/1/1 4/4/1 3/3/1
f 1/1/1 3/3/1 2/2/1
f 5/5/2 8/8/2 7/7/2
f 5/5/2 7/7/2 6/6/2
f 9/9/3 12/12/3 11/11/3
f 9/9/3 11/11/3 10/10/3
f 13/13/4 16/16/4 15/15/4
f 13/13/4 15/15/4 14/14/4
f 17/17/5 20/20/5 19/19/5
f 17/17/5 19/19/5 18/18/5
f 21/21/6 24/24/6 23/23/6
f 21/21/6 23/23/6 22/22/6
